<svg width="194" height="54" viewBox="0 0 194 54" fill="none" xmlns="http://www.w3.org/2000/svg">
<path d="M31.644 14.62V40H24.588V25.996L19.8 40H13.896L9.072 25.888V40H2.016V14.62H10.548L16.92 31.108L23.148 14.62H31.644Z" fill="black"/>
<path d="M154.868 40L149.828 30.64H149.072V40H142.016V14.62H153.14C155.18 14.62 156.908 14.98 158.324 15.7C159.74 16.396 160.808 17.368 161.528 18.616C162.248 19.84 162.608 21.22 162.608 22.756C162.608 24.484 162.128 26.008 161.168 27.328C160.232 28.624 158.852 29.548 157.028 30.1L162.752 40H154.868ZM149.072 25.816H152.564C153.524 25.816 154.244 25.588 154.724 25.132C155.204 24.676 155.444 24.016 155.444 23.152C155.444 22.336 155.192 21.7 154.688 21.244C154.208 20.764 153.5 20.524 152.564 20.524H149.072V25.816Z" fill="black"/>
<path d="M183.072 20.272V24.412H191.172V29.776H183.072V34.348H192.252V40H176.016V14.62H192.252V20.272H183.072Z" fill="black"/>
<rect x="45.5" y="11.5" width="83" height="33" rx="15.5" stroke="black" stroke-width="3"/>
<line x1="86.5002" y1="41.0192" x2="86.0002" y2="15.0192" stroke="black" stroke-width="2"/>
<circle cx="64" cy="28" r="10" fill="black"/>
</svg>
